<?xml version="1.0" encoding="utf-8"?>
<!-- Generator: Adobe Illustrator 22.1.0, SVG Export Plug-In . SVG Version: 6.00 Build 0)  -->
<svg version="1.1" id="Layer_2_1_" xmlns="http://www.w3.org/2000/svg" xmlns:xlink="http://www.w3.org/1999/xlink" x="0px" y="0px"
	 viewBox="0 0 649.7 505.5" style="enable-background:new 0 0 649.7 505.5;" xml:space="preserve">
<style type="text/css">
	.st0{fill:#FFFFFF;}
</style>
<g>
	<circle class="st0" cx="151.3" cy="340.9" r="4"/>
	<circle class="st0" cx="173.5" cy="340.9" r="4"/>
	<circle class="st0" cx="195.6" cy="340.9" r="4"/>
	<circle class="st0" cx="217.7" cy="340.9" r="4"/>
	<circle class="st0" cx="239.9" cy="340.9" r="4"/>
</g>
<g>
	<path class="st0" d="M41.7,78.5c15.1,10.2,33.4,16.2,53,16.2c13,0,25.5-2.7,36.9-7.5c17-7.2,31.4-19.2,41.6-34.3
		c10.2-15.1,16.2-33.4,16.2-53h-21h-21c0,7.3-1.5,14.2-4.1,20.5c-4,9.4-10.7,17.5-19.1,23.2s-18.5,9-29.5,9
		c-7.3,0-14.2-1.5-20.5-4.1c-9.4-4-17.5-10.7-23.2-19.1S42,11,42,0H0c0,13,2.7,25.5,7.5,36.9C14.7,53.9,26.6,68.3,41.7,78.5z"/>
</g>
<g>
	<path class="st0" d="M242,243.6c-7.3,0-14.2-1.5-20.5-4.1c-9.4-4-17.5-10.7-23.2-19.1c-5.7-8.4-9-18.5-9-29.5
		c0-7.3,1.5-14.2,4.1-20.5c4-9.4,10.7-17.5,19.1-23.2c8.4-5.7,18.5-9,29.5-9v-42c-13,0-25.5,2.6-36.9,7.5
		c-17,7.2-31.4,19.2-41.6,34.3c-10.2,15.1-16.2,33.4-16.2,53c0,13,2.7,25.5,7.5,36.9c7.2,17,19.2,31.4,34.3,41.6s33.4,16.2,53,16.2
		v-21v-21.1H242z"/>
</g>
<g>
	<path class="st0" d="M300.6,227.3c7.3,17.2,19.3,31.7,34.6,42c14.9,10.1,33,16.1,52.3,16.3v-42c-7-0.1-13.6-1.6-19.7-4.2
		c-9.6-4-17.8-10.9-23.5-19.4c-5.8-8.6-9.1-18.7-9.1-29.9V96.2h-42v93.9C293.1,203.2,295.8,215.8,300.6,227.3z"/>
</g>
<g>
	<path class="st0" d="M147.4,397.1H175V408h-5.2v-6.5h-13.7v12.3h11.6v4.4h-11.6v13.1h13.7v-6.5h5.2v10.9h-27.6v-4.4h3.7v-29.7h-3.7
		V397.1z"/>
	<path class="st0" d="M197.8,414.8H193v-1.6c-0.6,0-1.1,0.1-1.7,0.3c-0.6,0.2-1.1,0.5-1.6,1c-0.5,0.4-1,1-1.3,1.6
		c-0.4,0.7-0.7,1.5-0.8,2.4v12.7h4.5v4.4H179v-4.4h3.6v-17.6h-3.7v-4.4h8.4v3.6c0.3-0.5,0.6-1,1-1.5s0.8-0.9,1.3-1.2
		c0.5-0.3,1-0.6,1.5-0.8c0.6-0.2,1.2-0.3,1.8-0.3c0.9,0,1.7,0,2.5,0s1.6,0,2.3,0.1v5.7H197.8z"/>
	<path class="st0" d="M201,396h8.3v16.1h0.2c0.5-0.5,1-0.9,1.6-1.3s1.3-0.8,1.9-1.1s1.4-0.5,2.1-0.7s1.5-0.3,2.3-0.3
		c1.4,0,2.7,0.2,3.8,0.6s2.1,1,2.9,1.8s1.4,1.8,1.8,3.1c0.4,1.2,0.6,2.7,0.6,4.4v12.6h4v4.4H218v-4.4h3.6v-12c0-2-0.5-3.5-1.5-4.6
		c-1-1-2.5-1.6-4.4-1.6c-1.1,0-2.2,0.3-3.3,0.8s-2.2,1.2-3.1,1.9v15.4h3.8v4.4h-12.5v-4.4h4v-30.8H201V396z"/>
	<path class="st0" d="M231.6,409.3h9.1v4.4h-2.5l6.5,18.1l6.3-18.1h-1.6v-4.4h8.3v4.4h-2.3l-8.6,22.3h-4.7l-8.6-22.3h-2.1v-4.4
		H231.6z"/>
	<path class="st0" d="M265.4,423c0,0.7,0.1,1.4,0.2,2s0.3,1.2,0.5,1.8c0.6,1.7,1.6,3,3,3.8c1.4,0.9,2.9,1.3,4.7,1.3
		c1.4,0,2.7-0.2,4-0.6s2.7-1,4.1-1.8l1.9,3.2c-1.7,1.2-3.5,2.1-5.2,2.6s-3.6,0.9-5.4,0.9s-3.4-0.3-4.9-0.9s-2.8-1.5-3.9-2.6
		s-1.9-2.6-2.6-4.4s-0.9-3.8-0.9-6.1c0-1.9,0.3-3.7,0.8-5.3c0.5-1.7,1.3-3.1,2.3-4.4c1-1.2,2.3-2.2,3.9-3s3.3-1.1,5.4-1.1
		c2,0,3.6,0.3,5,0.9c1.3,0.6,2.4,1.4,3.2,2.4c0.8,1,1.5,2.1,1.9,3.4s0.7,2.6,0.9,3.9c0.1,0.6,0.1,1.3,0.2,2s0,1.3,0,1.9h-19.1V423z
		 M272.7,412.5c-1.1,0-2.1,0.2-2.9,0.5s-1.5,0.8-2.1,1.3c-0.6,0.6-1,1.3-1.4,2.1s-0.6,1.8-0.8,2.8h13.6c-0.1-1-0.2-1.9-0.5-2.7
		s-0.6-1.5-1.1-2.2s-1.2-1.1-2-1.4S273.9,412.5,272.7,412.5z"/>
	<path class="st0" d="M308.2,414.8h-4.8v-1.6c-0.6,0-1.1,0.1-1.7,0.3c-0.6,0.2-1.1,0.5-1.6,1c-0.5,0.4-1,1-1.3,1.6
		c-0.4,0.7-0.7,1.5-0.8,2.4v12.7h4.5v4.4h-13.1v-4.4h3.6v-17.6h-3.7v-4.4h8.4v3.6c0.3-0.5,0.6-1,1-1.5s0.8-0.9,1.3-1.2
		c0.5-0.3,1-0.6,1.5-0.8c0.6-0.2,1.2-0.3,1.8-0.3c0.9,0,1.7,0,2.5,0s1.6,0,2.3,0.1v5.7H308.2z"/>
	<path class="st0" d="M312.1,409.3h9.1v4.4h-2.5l6.5,18.1l6.3-18.1h-1.6v-4.4h8.3v4.4H336l-8.6,22.3h-4.7l-8.6-22.3H312v-4.4H312.1z
		"/>
	<path class="st0" d="M356.6,414.5c-0.3-0.5-0.8-0.9-1.3-1.2c-0.5-0.3-1.1-0.5-1.8-0.7c-0.6-0.1-1.3-0.2-1.9-0.2
		c-0.7,0-1.3,0.1-1.9,0.2s-1.1,0.4-1.5,0.7s-0.7,0.6-1,1.1c-0.2,0.4-0.3,0.9-0.3,1.4c0,0.9,0.3,1.6,0.8,2.1s1.4,1,2.7,1.4l5.1,1.8
		c2.2,0.7,3.7,1.7,4.7,3s1.5,2.8,1.5,4.5c0,1.2-0.2,2.2-0.7,3.2s-1.1,1.8-2,2.5s-1.9,1.2-3.1,1.6s-2.5,0.6-4,0.6c-2,0-3.7-0.3-5-1
		s-2.3-1.5-3-2.6h-2.6v-4.4h5.3c0,0.7,0.2,1.3,0.5,1.9c0.3,0.5,0.7,0.9,1.2,1.3s1.1,0.6,1.8,0.7s1.3,0.2,2,0.2s1.3-0.1,1.9-0.2
		c0.6-0.2,1.1-0.4,1.6-0.7c0.5-0.3,0.8-0.7,1.1-1.1s0.4-0.9,0.4-1.5c0-0.8-0.3-1.6-0.8-2.2s-1.5-1.1-2.8-1.6l-5-1.9
		c-2-0.7-3.6-1.7-4.6-2.8c-1-1.1-1.5-2.5-1.5-4.2c0-1.1,0.2-2.2,0.6-3.1s1-1.8,1.8-2.4c0.8-0.7,1.7-1.2,2.9-1.6s2.4-0.6,3.9-0.6
		c1.9,0,3.5,0.3,4.7,0.8s2.4,1.4,3.4,2.7h2.5v4.4H357C357.1,415.6,356.9,415,356.6,414.5z"/>
	<path class="st0" d="M382.4,433.1c-1,0.9-2.1,1.7-3.3,2.3s-2.6,0.9-4.1,0.9c-1.3,0-2.5-0.2-3.5-0.6s-2-1-2.8-1.7s-1.4-1.5-1.8-2.5
		s-0.6-1.9-0.6-3s0.2-2.1,0.5-3s0.8-1.6,1.3-2.2s1.2-1.2,1.9-1.6c0.7-0.4,1.5-0.8,2.3-1c0.8-0.3,1.6-0.4,2.5-0.6
		c0.8-0.1,1.6-0.2,2.4-0.2c1.2,0,2.2,0,3.1,0.1c0.8,0.1,1.6,0.2,2.3,0.3v-2.2c0-0.9-0.1-1.7-0.4-2.4c-0.3-0.7-0.7-1.3-1.1-1.7
		c-0.5-0.4-1.1-0.8-1.8-1s-1.5-0.3-2.3-0.3s-1.6,0.1-2.3,0.2c-0.7,0.1-1.4,0.3-2,0.4c-0.6,0.2-1.2,0.4-1.8,0.6
		c-0.5,0.2-1,0.5-1.4,0.7l-1.5-3.3c0.6-0.4,1.3-0.8,2.1-1.1c0.7-0.3,1.5-0.6,2.3-0.9c0.8-0.2,1.7-0.4,2.5-0.6
		c0.9-0.1,1.7-0.2,2.5-0.2c1.5,0,2.9,0.2,4.1,0.5c1.2,0.4,2.3,0.9,3.1,1.7s1.5,1.7,2,2.9c0.5,1.2,0.7,2.6,0.7,4.2V431h2.9v4.4h-7.6
		v-2.3H382.4z M376,432.3c0.6,0,1.3-0.1,1.9-0.2s1.2-0.4,1.8-0.6c0.6-0.3,1.1-0.6,1.5-0.9c0.5-0.3,0.9-0.7,1.2-1.1v-5.9H377
		c-0.9,0-1.7,0.1-2.5,0.3s-1.4,0.5-2,0.9s-1,0.9-1.3,1.4s-0.5,1.2-0.5,2c0,0.7,0.1,1.3,0.4,1.8s0.6,0.9,1.1,1.3
		c0.5,0.3,1,0.6,1.7,0.8C374.5,432.2,375.2,432.3,376,432.3z"/>
	<path class="st0" d="M394.7,396h9.3v4.4h-0.1v19.7h4.6l6.2-6.4h-1.6v-4.4h10v4.4h-3.3l-8,8.3l8.7,9.3h3.2v4.4h-5.6l-10.8-11.8h-3.5
		v7.4h2.2v4.4h-11.2v-4.4h4.3v-30.8h-4.5L394.7,396L394.7,396z"/>
	<path class="st0" d="M443.5,433.1c-1,0.9-2.1,1.7-3.3,2.3s-2.6,0.9-4.1,0.9c-1.3,0-2.5-0.2-3.5-0.6s-2-1-2.8-1.7s-1.4-1.5-1.8-2.5
		s-0.6-1.9-0.6-3s0.2-2.1,0.5-3s0.8-1.6,1.3-2.2s1.2-1.2,1.9-1.6c0.7-0.4,1.5-0.8,2.3-1c0.8-0.3,1.6-0.4,2.5-0.6
		c0.8-0.1,1.6-0.2,2.4-0.2c1.2,0,2.2,0,3.1,0.1c0.8,0.1,1.6,0.2,2.3,0.3v-2.2c0-0.9-0.1-1.7-0.4-2.4c-0.3-0.7-0.7-1.3-1.1-1.7
		c-0.5-0.4-1.1-0.8-1.8-1s-1.5-0.3-2.3-0.3s-1.6,0.1-2.3,0.2c-0.7,0.1-1.4,0.3-2,0.4c-0.6,0.2-1.2,0.4-1.8,0.6
		c-0.5,0.2-1,0.5-1.4,0.7l-1.5-3.3c0.6-0.4,1.3-0.8,2.1-1.1c0.7-0.3,1.5-0.6,2.3-0.9c0.8-0.2,1.7-0.4,2.5-0.6
		c0.9-0.1,1.7-0.2,2.5-0.2c1.5,0,2.9,0.2,4.1,0.5c1.2,0.4,2.3,0.9,3.1,1.7s1.5,1.7,2,2.9c0.5,1.2,0.7,2.6,0.7,4.2V431h2.9v4.4h-7.6
		v-2.3H443.5z M437.1,432.3c0.6,0,1.3-0.1,1.9-0.2s1.2-0.4,1.8-0.6c0.6-0.3,1.1-0.6,1.5-0.9c0.5-0.3,0.9-0.7,1.2-1.1v-5.9H438
		c-0.9,0-1.7,0.1-2.5,0.3s-1.4,0.5-2,0.9s-1,0.9-1.3,1.4s-0.5,1.2-0.5,2c0,0.7,0.1,1.3,0.4,1.8s0.6,0.9,1.1,1.3
		c0.5,0.3,1,0.6,1.7,0.8C435.6,432.2,436.4,432.3,437.1,432.3z"/>
	<path class="st0" d="M470.9,396h8.3v35.1h3.9v4.4h-8.6v-2.2c-0.8,0.9-1.8,1.5-2.9,2s-2.4,0.7-3.8,0.7c-1.8,0-3.4-0.3-5-0.9
		c-1.5-0.6-2.9-1.5-4-2.7s-2-2.7-2.6-4.4c-0.6-1.7-1-3.7-1-6c0-2,0.3-3.9,0.9-5.5c0.6-1.7,1.5-3.1,2.6-4.3c1.1-1.2,2.5-2.1,4-2.7
		c1.6-0.7,3.3-1,5.3-1c1.3,0,2.4,0.1,3.5,0.4c1,0.3,2.1,0.8,3,1.5v-10.1h-3.6L470.9,396L470.9,396z M468.4,432
		c1.4,0,2.6-0.2,3.5-0.6s1.8-1,2.6-1.9v-14.7c-0.8-0.7-1.8-1.2-2.9-1.5s-2.2-0.5-3.4-0.5c-1.1,0-2.2,0.2-3.1,0.6
		c-1,0.4-1.8,1-2.6,1.8s-1.3,1.8-1.7,2.9s-0.6,2.5-0.6,4c0,1.6,0.2,3.1,0.6,4.3s1,2.3,1.7,3.1c0.7,0.8,1.6,1.5,2.6,1.9
		S467.2,432,468.4,432z"/>
	<path class="st0" d="M491.1,423c0,0.7,0.1,1.4,0.2,2s0.3,1.2,0.5,1.8c0.6,1.7,1.6,3,3,3.8c1.4,0.9,2.9,1.3,4.7,1.3
		c1.4,0,2.7-0.2,4-0.6s2.7-1,4.1-1.8l1.9,3.2c-1.7,1.2-3.5,2.1-5.2,2.6s-3.6,0.9-5.4,0.9s-3.4-0.3-4.9-0.9s-2.8-1.5-3.9-2.6
		s-1.9-2.6-2.6-4.4s-0.9-3.8-0.9-6.1c0-1.9,0.3-3.7,0.8-5.3c0.5-1.7,1.3-3.1,2.3-4.4c1-1.2,2.3-2.2,3.9-3s3.3-1.1,5.4-1.1
		c2,0,3.6,0.3,5,0.9c1.3,0.6,2.4,1.4,3.2,2.4c0.8,1,1.5,2.1,1.9,3.4s0.7,2.6,0.9,3.9c0.1,0.6,0.1,1.3,0.2,2s0,1.3,0,1.9h-19.1V423z
		 M498.5,412.5c-1.1,0-2.1,0.2-2.9,0.5s-1.5,0.8-2.1,1.3c-0.6,0.6-1,1.3-1.4,2.1s-0.6,1.8-0.8,2.8H505c-0.1-1-0.2-1.9-0.5-2.7
		s-0.6-1.5-1.1-2.2s-1.2-1.1-2-1.4S499.7,412.5,498.5,412.5z"/>
	<path class="st0" d="M515.1,409.3h8.4v3.1h0.1c0.6-0.5,1.2-1,1.8-1.4s1.3-0.8,2-1.1s1.4-0.6,2.2-0.8s1.5-0.3,2.3-0.3
		c1.9,0,3.5,0.4,4.9,1.1s2.4,1.8,3.2,3.3c0.6-0.6,1.3-1.1,2-1.7c0.7-0.5,1.5-1,2.2-1.4s1.6-0.7,2.4-0.9s1.7-0.4,2.6-0.4
		c1.4,0,2.7,0.2,3.8,0.6s2.1,1,2.9,1.8s1.4,1.8,1.8,3.1c0.4,1.2,0.6,2.7,0.6,4.4v12.6h3.7v4.4h-12.3v-4.4h3.7v-12
		c0-2-0.5-3.5-1.5-4.6c-1-1-2.5-1.6-4.4-1.6c-1.1,0-2.3,0.3-3.5,0.8s-2.2,1.2-3,2.1v15.3h3.6v4.4h-12.3v-4.4h3.7v-12
		c0-2-0.5-3.5-1.5-4.6c-1-1-2.5-1.6-4.4-1.6c-1.1,0-2.2,0.3-3.3,0.8s-2.2,1.2-3.2,2v15.4h3.7v4.4H515v-4.4h3.7v-17.6H515
		L515.1,409.3L515.1,409.3z"/>
	<path class="st0" d="M566.6,409.3h8.6v21.9h4v4.4h-12.5v-4.4h3.8v-17.6h-3.8L566.6,409.3L566.6,409.3z M569.5,399.9
		c0-0.4,0.1-0.9,0.3-1.3s0.4-0.7,0.7-1s0.6-0.5,1.1-0.7c0.4-0.2,0.8-0.3,1.3-0.3c0.4,0,0.9,0.1,1.3,0.3c0.4,0.2,0.7,0.4,1,0.7
		c0.3,0.3,0.5,0.6,0.7,1s0.3,0.8,0.3,1.3s-0.1,0.9-0.3,1.3s-0.4,0.8-0.7,1.1c-0.3,0.3-0.6,0.6-1,0.7c-0.4,0.2-0.8,0.3-1.3,0.3
		s-0.9-0.1-1.3-0.3c-0.4-0.2-0.8-0.4-1.1-0.7c-0.3-0.3-0.5-0.7-0.7-1.1S569.5,400.4,569.5,399.9z"/>
	<path class="st0" d="M594.5,422.4c0-2.1,0.4-4,1-5.7s1.6-3.2,2.7-4.4c1.2-1.2,2.6-2.2,4.2-2.8s3.4-1,5.3-1c1.9,0,3.7,0.3,5.3,1
		s3,1.6,4.2,2.8c1.2,1.2,2,2.7,2.7,4.4s1,3.6,1,5.7c0,2-0.3,3.9-1,5.6c-0.6,1.7-1.5,3.2-2.7,4.4s-2.5,2.2-4.2,2.9
		c-1.6,0.7-3.4,1-5.3,1c-2,0-3.8-0.3-5.4-1s-3-1.6-4.1-2.9c-1.2-1.2-2-2.7-2.7-4.4S594.5,424.5,594.5,422.4z M599.5,422.4
		c0,1.5,0.2,2.9,0.6,4.1s1,2.3,1.8,3.1c0.8,0.9,1.6,1.5,2.6,2s2,0.7,3.2,0.7s2.3-0.2,3.3-0.7s1.9-1.1,2.6-2c0.7-0.9,1.3-1.9,1.8-3.1
		s0.6-2.6,0.6-4.1c0-1.6-0.2-3-0.6-4.2s-1-2.3-1.7-3.1s-1.6-1.5-2.6-1.9s-2.1-0.6-3.3-0.6c-1.1,0-2.2,0.2-3.2,0.6s-1.9,1-2.6,1.9
		s-1.3,1.9-1.8,3.1S599.5,420.8,599.5,422.4z"/>
	<path class="st0" d="M645,433.2c-0.9,0.9-1.9,1.6-3,2.1s-2.4,0.8-3.9,0.8c-1.8,0-3.4-0.3-5-0.9c-1.5-0.6-2.9-1.5-4-2.7
		s-2-2.7-2.6-4.4c-0.6-1.7-1-3.7-1-6c0-2,0.3-3.9,0.9-5.5c0.6-1.7,1.5-3.1,2.6-4.3c1.1-1.2,2.5-2.1,4-2.7c1.6-0.7,3.3-1,5.3-1
		c1.3,0,2.5,0.1,3.6,0.4s2.1,0.8,3.1,1.5v-1.3h4.7v25.3c0,4.2-1,7.3-3,9.4s-5,3.2-9.2,3.2c-0.9,0-1.9-0.1-2.9-0.2s-2-0.4-3-0.6
		c-1-0.3-1.9-0.7-2.8-1.1s-1.8-1-2.6-1.7l2.5-3.8c0.5,0.4,1.1,0.8,1.7,1.2s1.3,0.7,2.1,1c0.7,0.3,1.5,0.5,2.3,0.6s1.6,0.2,2.4,0.2
		c1.3,0,2.4-0.1,3.4-0.4s1.7-0.7,2.4-1.4c0.6-0.7,1.1-1.6,1.4-2.8s0.5-2.6,0.5-4.4L645,433.2L645,433.2z M638.7,432
		c0.8,0,1.5-0.1,2.1-0.2s1.2-0.4,1.8-0.6c0.5-0.2,1-0.5,1.4-0.8s0.7-0.7,1-1V415c-0.9-0.8-1.9-1.3-3-1.7s-2.3-0.5-3.5-0.5
		c-1.1,0-2.2,0.2-3.1,0.6c-1,0.4-1.8,1-2.6,1.8s-1.3,1.8-1.7,2.9s-0.6,2.5-0.6,4c0,1.6,0.2,3.1,0.6,4.3s1,2.3,1.7,3.1
		c0.7,0.8,1.6,1.5,2.6,1.9S637.5,432,638.7,432z"/>
	<path class="st0" d="M147.4,455.1H163c1.7,0,3.3,0.2,4.8,0.7c1.4,0.4,2.7,1.1,3.8,2s1.9,2,2.5,3.3s0.9,2.8,0.9,4.5
		c0,1.4-0.3,2.7-0.9,4c-0.6,1.2-1.4,2.3-2.4,3.3s-2.3,1.7-3.8,2.2s-3.1,0.8-4.9,0.8h-6.8v13.5h3.9v4.4h-12.5v-4.4h3.7v-29.7h-3.7
		v-4.6H147.4z M156.1,459.5v12.1h6.9c1,0,1.8-0.1,2.7-0.4c0.8-0.3,1.5-0.6,2.1-1.2s1-1.1,1.4-1.9s0.5-1.6,0.5-2.6
		c0-1.9-0.6-3.4-1.7-4.4c-1.2-1.1-3-1.6-5.5-1.6H156.1z"/>
	<path class="st0" d="M197.5,472.8h-4.8v-1.6c-0.6,0-1.1,0.1-1.7,0.3c-0.6,0.2-1.1,0.5-1.6,1c-0.5,0.4-1,1-1.3,1.6
		c-0.4,0.7-0.7,1.5-0.8,2.4v12.7h4.5v4.4h-13.1v-4.4h3.6v-17.6h-3.7v-4.4h8.4v3.6c0.3-0.5,0.6-1,1-1.5s0.8-0.9,1.3-1.2
		c0.5-0.3,1-0.6,1.5-0.8c0.6-0.2,1.2-0.3,1.8-0.3c0.9,0,1.7,0,2.5,0s1.6,0,2.3,0.1v5.7H197.5z"/>
	<path class="st0" d="M201.5,480.4c0-2.1,0.4-4,1-5.7s1.6-3.2,2.7-4.4c1.2-1.2,2.6-2.2,4.2-2.8s3.4-1,5.3-1c1.9,0,3.7,0.3,5.3,1
		s3,1.6,4.2,2.8c1.2,1.2,2,2.7,2.7,4.4s1,3.6,1,5.7c0,2-0.3,3.9-1,5.6c-0.6,1.7-1.5,3.2-2.7,4.4s-2.5,2.2-4.2,2.9
		c-1.6,0.7-3.4,1-5.3,1c-2,0-3.8-0.3-5.4-1s-3-1.6-4.1-2.9c-1.2-1.2-2-2.7-2.7-4.4S201.5,482.5,201.5,480.4z M206.5,480.4
		c0,1.5,0.2,2.9,0.6,4.1s1,2.3,1.8,3.1c0.8,0.9,1.6,1.5,2.6,2s2,0.7,3.2,0.7s2.3-0.2,3.3-0.7s1.9-1.1,2.6-2c0.7-0.9,1.3-1.9,1.8-3.1
		s0.6-2.6,0.6-4.1c0-1.6-0.2-3-0.6-4.2s-1-2.3-1.7-3.1s-1.6-1.5-2.6-1.9s-2.1-0.6-3.3-0.6c-1.1,0-2.2,0.2-3.2,0.6s-1.9,1-2.6,1.9
		s-1.3,1.9-1.8,3.1S206.5,478.8,206.5,480.4z"/>
	<path class="st0" d="M240.4,467.3h6.1v3.8h-6.1v18.1h4.1v4.4h-12.8v-4.4h4v-18.1h-4.3v-3.8h4.3v-4.1c0-1.5,0.3-2.9,0.7-4
		s1-2.1,1.7-2.8s1.6-1.3,2.7-1.7s2.2-0.6,3.5-0.6c0.9,0,1.7,0,2.4,0.1s1.3,0.2,1.9,0.3c0.6,0.1,1.1,0.3,1.5,0.5s0.8,0.3,1.2,0.5
		l-1.4,3.4c-0.5-0.3-1.2-0.5-2.1-0.7s-1.8-0.3-2.7-0.3c-1.4,0-2.5,0.4-3.3,1.3s-1.2,2.2-1.2,3.8v4.3H240.4z"/>
	<path class="st0" d="M254.1,481c0,0.7,0.1,1.4,0.2,2c0.1,0.6,0.3,1.2,0.5,1.8c0.6,1.7,1.6,3,3,3.8c1.4,0.9,2.9,1.3,4.7,1.3
		c1.4,0,2.7-0.2,4-0.6s2.7-1,4.1-1.8l1.9,3.2c-1.7,1.2-3.5,2.1-5.2,2.6s-3.6,0.9-5.4,0.9s-3.4-0.3-4.9-0.9s-2.8-1.5-3.9-2.6
		s-1.9-2.6-2.6-4.4s-0.9-3.8-0.9-6.1c0-1.9,0.3-3.7,0.8-5.3c0.5-1.7,1.3-3.1,2.3-4.4c1-1.2,2.3-2.2,3.9-3c1.6-0.8,3.3-1.1,5.4-1.1
		c2,0,3.6,0.3,5,0.9c1.3,0.6,2.4,1.4,3.2,2.4c0.8,1,1.5,2.1,1.9,3.4s0.7,2.6,0.9,3.9c0.1,0.6,0.1,1.3,0.2,2s0,1.3,0,1.9h-19.1V481z
		 M261.5,470.5c-1.1,0-2.1,0.2-2.9,0.5s-1.5,0.8-2.1,1.3c-0.6,0.6-1,1.3-1.4,2.1s-0.6,1.8-0.8,2.8H268c-0.1-1-0.2-1.9-0.5-2.7
		s-0.6-1.5-1.1-2.2s-1.2-1.1-2-1.4S262.6,470.5,261.5,470.5z"/>
	<path class="st0" d="M293.1,472.5c-0.3-0.5-0.8-0.9-1.3-1.2c-0.5-0.3-1.1-0.5-1.8-0.7c-0.6-0.1-1.3-0.2-1.9-0.2
		c-0.7,0-1.3,0.1-1.9,0.2s-1.1,0.4-1.5,0.7s-0.7,0.6-1,1.1c-0.2,0.4-0.3,0.9-0.3,1.4c0,0.9,0.3,1.6,0.8,2.1s1.4,1,2.7,1.4l5.1,1.8
		c2.2,0.7,3.7,1.7,4.7,3s1.5,2.8,1.5,4.5c0,1.2-0.2,2.2-0.7,3.2s-1.1,1.8-2,2.5s-1.9,1.2-3.1,1.6s-2.5,0.6-4,0.6c-2,0-3.7-0.3-5-1
		s-2.3-1.5-3-2.6H278v-4.4h5.3c0,0.7,0.2,1.3,0.5,1.9c0.3,0.5,0.7,0.9,1.2,1.3s1.1,0.6,1.8,0.7s1.3,0.2,2,0.2s1.3-0.1,1.9-0.2
		c0.6-0.2,1.1-0.4,1.6-0.7c0.5-0.3,0.8-0.7,1.1-1.1s0.4-0.9,0.4-1.5c0-0.8-0.3-1.6-0.8-2.2s-1.5-1.1-2.8-1.6l-5-1.9
		c-2-0.7-3.6-1.7-4.6-2.8c-1-1.1-1.5-2.5-1.5-4.2c0-1.1,0.2-2.2,0.6-3.1s1-1.8,1.8-2.4c0.8-0.7,1.7-1.2,2.9-1.6s2.4-0.6,3.9-0.6
		c1.9,0,3.5,0.3,4.7,0.8s2.4,1.4,3.4,2.7h2.5v4.4h-5.2C293.6,473.6,293.5,473,293.1,472.5z"/>
	<path class="st0" d="M318.3,472.5c-0.3-0.5-0.8-0.9-1.3-1.2c-0.5-0.3-1.1-0.5-1.8-0.7c-0.6-0.1-1.3-0.2-1.9-0.2
		c-0.7,0-1.3,0.1-1.9,0.2s-1.1,0.4-1.5,0.7s-0.7,0.6-1,1.1c-0.2,0.4-0.3,0.9-0.3,1.4c0,0.9,0.3,1.6,0.8,2.1s1.4,1,2.7,1.4l5.1,1.8
		c2.2,0.7,3.7,1.7,4.7,3s1.5,2.8,1.5,4.5c0,1.2-0.2,2.2-0.7,3.2s-1.1,1.8-2,2.5s-1.9,1.2-3.1,1.6s-2.5,0.6-4,0.6c-2,0-3.7-0.3-5-1
		s-2.3-1.5-3-2.6H303v-4.4h5.3c0,0.7,0.2,1.3,0.5,1.9c0.3,0.5,0.7,0.9,1.2,1.3s1.1,0.6,1.8,0.7s1.3,0.2,2,0.2s1.3-0.1,1.9-0.2
		c0.6-0.2,1.1-0.4,1.6-0.7c0.5-0.3,0.8-0.7,1.1-1.1s0.4-0.9,0.4-1.5c0-0.8-0.3-1.6-0.8-2.2s-1.5-1.1-2.8-1.6l-5-1.9
		c-2-0.7-3.6-1.7-4.6-2.8c-1-1.1-1.5-2.5-1.5-4.2c0-1.1,0.2-2.2,0.6-3.1s1-1.8,1.8-2.4c0.8-0.7,1.7-1.2,2.9-1.6s2.4-0.6,3.9-0.6
		c1.9,0,3.5,0.3,4.7,0.8s2.4,1.4,3.4,2.7h2.5v4.4h-5.2C318.8,473.6,318.6,473,318.3,472.5z"/>
	<path class="st0" d="M328.4,467.3h8.6v21.9h4v4.4h-12.5v-4.4h3.8v-17.6h-3.8v-4.3H328.4z M331.3,457.9c0-0.4,0.1-0.9,0.3-1.3
		c0.2-0.4,0.4-0.7,0.7-1c0.3-0.3,0.6-0.5,1.1-0.7c0.4-0.2,0.8-0.3,1.3-0.3c0.4,0,0.9,0.1,1.3,0.3c0.4,0.2,0.7,0.4,1,0.7
		c0.3,0.3,0.5,0.6,0.7,1s0.3,0.8,0.3,1.3s-0.1,0.9-0.3,1.3s-0.4,0.8-0.7,1.1c-0.3,0.3-0.6,0.6-1,0.7c-0.4,0.2-0.8,0.3-1.3,0.3
		s-0.9-0.1-1.3-0.3c-0.4-0.2-0.8-0.4-1.1-0.7c-0.3-0.3-0.5-0.7-0.7-1.1S331.3,458.4,331.3,457.9z"/>
	<path class="st0" d="M344,480.4c0-2.1,0.4-4,1-5.7s1.6-3.2,2.7-4.4c1.2-1.2,2.6-2.2,4.2-2.8s3.4-1,5.3-1s3.7,0.3,5.3,1
		s3,1.6,4.2,2.8c1.2,1.2,2,2.7,2.7,4.4s1,3.6,1,5.7c0,2-0.3,3.9-1,5.6c-0.6,1.7-1.5,3.2-2.7,4.4s-2.5,2.2-4.2,2.9
		c-1.6,0.7-3.4,1-5.3,1c-2,0-3.8-0.3-5.4-1s-3-1.6-4.1-2.9c-1.2-1.2-2-2.7-2.7-4.4S344,482.5,344,480.4z M349,480.4
		c0,1.5,0.2,2.9,0.6,4.1s1,2.3,1.8,3.1c0.8,0.9,1.6,1.5,2.6,2s2,0.7,3.2,0.7s2.3-0.2,3.3-0.7s1.9-1.1,2.6-2s1.3-1.9,1.8-3.1
		s0.6-2.6,0.6-4.1c0-1.6-0.2-3-0.6-4.2s-1-2.3-1.7-3.1s-1.6-1.5-2.6-1.9s-2.1-0.6-3.3-0.6c-1.1,0-2.2,0.2-3.2,0.6s-1.9,1-2.6,1.9
		s-1.3,1.9-1.8,3.1S349,478.8,349,480.4z"/>
	<path class="st0" d="M391.7,489.2h3.7v-12c0-2-0.5-3.5-1.5-4.6c-1-1-2.5-1.6-4.4-1.6c-1.1,0-2.2,0.3-3.3,0.8s-2.2,1.2-3.2,2v15.4
		h3.7v4.4h-12.3v-4.4h3.7v-17.6h-3.7v-4.4h8.4v3.1h0.1c0.6-0.5,1.2-1,1.8-1.4s1.3-0.8,2-1.1s1.4-0.6,2.2-0.8s1.5-0.3,2.4-0.3
		c1.4,0,2.7,0.2,3.8,0.6s2.1,1,2.9,1.8s1.4,1.8,1.8,3.1c0.4,1.2,0.6,2.7,0.6,4.4v12.6h3.7v4.4h-12.3v-4.4H391.7z"/>
	<path class="st0" d="M423.6,472.5c-0.3-0.5-0.8-0.9-1.3-1.2c-0.5-0.3-1.1-0.5-1.8-0.7c-0.6-0.1-1.3-0.2-1.9-0.2
		c-0.7,0-1.3,0.1-1.9,0.2s-1.1,0.4-1.5,0.7s-0.7,0.6-1,1.1c-0.2,0.4-0.3,0.9-0.3,1.4c0,0.9,0.3,1.6,0.8,2.1s1.4,1,2.7,1.4l5.1,1.8
		c2.2,0.7,3.7,1.7,4.7,3s1.5,2.8,1.5,4.5c0,1.2-0.2,2.2-0.7,3.2s-1.1,1.8-2,2.5s-1.9,1.2-3.1,1.6s-2.5,0.6-4,0.6c-2,0-3.7-0.3-5-1
		s-2.3-1.5-3-2.6h-2.6v-4.4h5.3c0,0.7,0.2,1.3,0.5,1.9c0.3,0.5,0.7,0.9,1.2,1.3s1.1,0.6,1.8,0.7s1.3,0.2,2,0.2s1.3-0.1,1.9-0.2
		c0.6-0.2,1.1-0.4,1.6-0.7c0.5-0.3,0.8-0.7,1.1-1.1s0.4-0.9,0.4-1.5c0-0.8-0.3-1.6-0.8-2.2s-1.5-1.1-2.8-1.6l-5-1.9
		c-2-0.7-3.6-1.7-4.6-2.8c-1-1.1-1.5-2.5-1.5-4.2c0-1.1,0.2-2.2,0.6-3.1s1-1.8,1.8-2.4c0.8-0.7,1.7-1.2,2.9-1.6s2.4-0.6,3.9-0.6
		c1.9,0,3.5,0.3,4.7,0.8s2.4,1.4,3.4,2.7h2.5v4.4H424C424.1,473.6,423.9,473,423.6,472.5z"/>
	<path class="st0" d="M433.8,454h8.3v16.1h0.2c0.5-0.5,1-0.9,1.6-1.3s1.3-0.8,1.9-1.1s1.4-0.5,2.1-0.7s1.5-0.3,2.3-0.3
		c1.4,0,2.7,0.2,3.8,0.6s2.1,1,2.9,1.8s1.4,1.8,1.8,3.1c0.4,1.2,0.6,2.7,0.6,4.4v12.6h4v4.4h-12.5v-4.4h3.6v-12c0-2-0.5-3.5-1.5-4.6
		c-1-1-2.5-1.6-4.4-1.6c-1.1,0-2.2,0.3-3.3,0.8c-1.1,0.5-2.2,1.2-3.1,1.9v15.4h3.8v4.4h-12.5v-4.4h4v-30.8h-3.6L433.8,454L433.8,454
		z"/>
	<path class="st0" d="M470.8,489.9c-1-1.2-1.8-2.6-2.3-4.2s-0.8-3.3-0.8-5.3c0-2.1,0.3-4,1-5.7s1.5-3.2,2.7-4.4
		c1.2-1.2,2.5-2.2,4.2-2.9s3.4-1,5.3-1c1.3,0,2.6,0.2,3.7,0.5s2.2,0.7,3.2,1.3l3.4-4.3h5l-5.4,6.9c1,1.2,1.8,2.6,2.4,4.2
		s0.8,3.4,0.8,5.3c0,2.1-0.3,4-0.9,5.7s-1.5,3.2-2.6,4.4c-1.1,1.2-2.5,2.2-4.2,2.8c-1.6,0.7-3.4,1-5.4,1c-1.4,0-2.6-0.2-3.8-0.5
		s-2.3-0.8-3.2-1.4l-2,2.6h-5.1L470.8,489.9z M473,483.4c0.2,0.9,0.5,1.8,0.9,2.5l11.1-14.2c-0.6-0.4-1.3-0.7-2-0.9
		s-1.5-0.3-2.2-0.3c-1.1,0-2.2,0.2-3.2,0.6s-1.9,1.1-2.6,1.9s-1.3,1.9-1.8,3.1s-0.6,2.6-0.6,4.2C472.7,481.5,472.8,482.5,473,483.4z
		 M488.8,477.2c-0.2-1-0.6-1.8-1-2.6l-11.2,14.3c0.6,0.4,1.3,0.7,2,1s1.5,0.3,2.2,0.3c1.2,0,2.3-0.2,3.3-0.7s1.9-1.1,2.6-2
		s1.3-1.9,1.8-3.1c0.4-1.2,0.6-2.6,0.6-4.1C489.1,479.2,489,478.2,488.8,477.2z"/>
	<path class="st0" d="M498.4,467.3h8.5v28.3c0,1.5-0.2,2.9-0.6,4.1s-1,2.2-1.7,3.1s-1.6,1.5-2.7,2s-2.3,0.7-3.7,0.8l-0.5-3.5
		c1.5-0.2,2.6-0.9,3.3-2.1c0.7-1.2,1-2.8,1-4.8v-23.4h-3.7v-4.5H498.4z M501.6,457.9c0-0.4,0.1-0.8,0.2-1.1s0.4-0.7,0.6-0.9
		s0.6-0.5,1-0.6c0.4-0.2,0.8-0.2,1.2-0.2c0.4,0,0.8,0.1,1.2,0.2c0.4,0.2,0.7,0.4,1,0.6s0.5,0.6,0.6,0.9s0.2,0.7,0.2,1.1
		s-0.1,0.8-0.2,1.2s-0.4,0.7-0.6,1c-0.3,0.3-0.6,0.5-1,0.7s-0.7,0.2-1.2,0.2c-0.4,0-0.8-0.1-1.2-0.2c-0.4-0.2-0.7-0.4-1-0.7
		c-0.3-0.3-0.5-0.6-0.6-1S501.6,458.4,501.6,457.9z"/>
	<path class="st0" d="M528.2,472.5c-0.3-0.5-0.8-0.9-1.3-1.2c-0.5-0.3-1.1-0.5-1.8-0.7c-0.6-0.1-1.3-0.2-1.9-0.2
		c-0.7,0-1.3,0.1-1.9,0.2s-1.1,0.4-1.5,0.7s-0.7,0.6-1,1.1c-0.2,0.4-0.3,0.9-0.3,1.4c0,0.9,0.3,1.6,0.8,2.1s1.4,1,2.7,1.4l5.1,1.8
		c2.2,0.7,3.7,1.7,4.7,3s1.5,2.8,1.5,4.5c0,1.2-0.2,2.2-0.7,3.2s-1.1,1.8-2,2.5s-1.9,1.2-3.1,1.6c-1.2,0.4-2.5,0.6-4,0.6
		c-2,0-3.7-0.3-5-1s-2.3-1.5-3-2.6h-2.6v-4.4h5.3c0,0.7,0.2,1.3,0.5,1.9c0.3,0.5,0.7,0.9,1.2,1.3s1.1,0.6,1.8,0.7s1.3,0.2,2,0.2
		s1.3-0.1,1.9-0.2c0.6-0.2,1.1-0.4,1.6-0.7c0.5-0.3,0.8-0.7,1.1-1.1s0.4-0.9,0.4-1.5c0-0.8-0.3-1.6-0.8-2.2s-1.5-1.1-2.8-1.6l-5-1.9
		c-2-0.7-3.6-1.7-4.6-2.8c-1-1.1-1.5-2.5-1.5-4.2c0-1.1,0.2-2.2,0.6-3.1s1-1.8,1.8-2.4c0.8-0.7,1.7-1.2,2.9-1.6s2.4-0.6,3.9-0.6
		c1.9,0,3.5,0.3,4.7,0.8s2.4,1.4,3.4,2.7h2.5v4.4h-5.2C528.7,473.6,528.6,473,528.2,472.5z"/>
	<path class="st0" d="M538,454h9.3v4.4h-0.1v19.7h4.6l6.2-6.4h-1.6v-4.4h10v4.4h-3.3l-8,8.3l8.7,9.3h3.2v4.4h-5.6l-10.8-11.8h-3.5
		v7.4h2.2v4.4h-11.2v-4.4h4.3v-30.8H538V454z"/>
	<path class="st0" d="M569.8,480.4c0-2.1,0.4-4,1-5.7s1.6-3.2,2.7-4.4c1.2-1.2,2.6-2.2,4.2-2.8s3.4-1,5.3-1c1.9,0,3.7,0.3,5.3,1
		s3,1.6,4.2,2.8c1.2,1.2,2,2.7,2.7,4.4s1,3.6,1,5.7c0,2-0.3,3.9-1,5.6c-0.6,1.7-1.5,3.2-2.7,4.4s-2.5,2.2-4.2,2.9
		c-1.6,0.7-3.4,1-5.3,1c-2,0-3.8-0.3-5.4-1s-3-1.6-4.1-2.9c-1.2-1.2-2-2.7-2.7-4.4S569.8,482.5,569.8,480.4z M574.8,480.4
		c0,1.5,0.2,2.9,0.6,4.1s1,2.3,1.8,3.1c0.8,0.9,1.6,1.5,2.6,2s2,0.7,3.2,0.7s2.3-0.2,3.3-0.7s1.9-1.1,2.6-2c0.7-0.9,1.3-1.9,1.8-3.1
		s0.6-2.6,0.6-4.1c0-1.6-0.2-3-0.6-4.2s-1-2.3-1.7-3.1s-1.6-1.5-2.6-1.9s-2.1-0.6-3.3-0.6c-1.1,0-2.2,0.2-3.2,0.6s-1.9,1-2.6,1.9
		s-1.3,1.9-1.8,3.1S574.8,478.8,574.8,480.4z"/>
	<path class="st0" d="M599.7,454h8.5v35.1h4v4.4h-12.5v-4.4h3.8v-30.8h-3.8V454z"/>
	<path class="st0" d="M620.3,481c0,0.7,0.1,1.4,0.2,2c0.1,0.6,0.3,1.2,0.5,1.8c0.6,1.7,1.6,3,3,3.8c1.4,0.9,2.9,1.3,4.7,1.3
		c1.4,0,2.7-0.2,4-0.6s2.7-1,4.1-1.8l1.9,3.2c-1.7,1.2-3.5,2.1-5.2,2.6s-3.6,0.9-5.4,0.9c-1.8,0-3.4-0.3-4.9-0.9s-2.8-1.5-3.9-2.6
		s-1.9-2.6-2.6-4.4s-0.9-3.8-0.9-6.1c0-1.9,0.3-3.7,0.8-5.3c0.5-1.7,1.3-3.1,2.3-4.4c1-1.2,2.3-2.2,3.9-3s3.3-1.1,5.4-1.1
		c2,0,3.6,0.3,5,0.9c1.3,0.6,2.4,1.4,3.2,2.4s1.5,2.1,1.9,3.4s0.7,2.6,0.9,3.9c0.1,0.6,0.1,1.3,0.2,2s0,1.3,0,1.9h-19.1V481z
		 M627.7,470.5c-1.1,0-2.1,0.2-2.9,0.5c-0.8,0.3-1.5,0.8-2.1,1.3c-0.6,0.6-1,1.3-1.4,2.1s-0.6,1.8-0.8,2.8h13.6
		c-0.1-1-0.2-1.9-0.5-2.7s-0.6-1.5-1.1-2.2s-1.2-1.1-2-1.4S628.9,470.5,627.7,470.5z"/>
</g>
</svg>
